/* XPM */
static char *result[] = {
/* columns rows colors chars-per-pixel */
"64 64 6 1 ",
"  c #00AFB8",
". c #00E8F5",
"X c #35EDF7",
"o c #98FAFF",
"O c #B3FBFF",
"+ c #E0FDFF",
/* pixels */
".......oooooo.......       ........ooo..........................",
"........oooo........     ..........ooo....ooo.......OOO.........",
"......oooooo.......     ............oo..oooo.......OOOO.........",
"....oooooo........    ..............ooooooo.......OOOO..........",
"..oo++O.........     ...............ooooo......+++++O...........",
".ooo++O.........     .............ooooo........+++++............",
"oooo++O.........................ooooo..........++OOO..........oo",
"ooo.+++.......................ooooo............OOOO..........ooo",
"oo..+++.....................ooooo.............OOOO.........++ooo",
".....OO....................oooo...............OOO.........+++o..",
".....OO....... ...........ooo................OOO.........++++...",
".....OO.......  .........ooo................OOO.........++++....",
".....OO.....     .......ooo...............OOOO.........o+++.....",
".....OOO..     .........oo.............OOOOOO.........ooo.......",
".....OOOO     .........ooo...........O+++OOO.........oooo.......",
"......OOOO  ..........ooo.........OO+++++...........oooo........",
"........OOOO......+..ooo........OO++++++...........ooo..........",
".......   OOO....++..ooo......OOO+++++++O.........oooo..........",
"......    OOOO..++..ooo....OOOOOO++..++++.........ooo...........",
".....    ..OOOO+++.ooo....OOOOO...++..++++........oo............",
".....   .....OO++++++o....OOO.....++...+++........oo............",
".............+O++++++....OOO............OOO..    .oo............",
"...........++++++++o++...OO.............OOO..     oo............",
"..........++..++++++++o..OO..............OO..    ooo............",
".........++....+++.+++o+++O..............OO..   ooo.............",
"........+.....++o....+++++...............OO..   oo  ............",
"........+....oooo....++++oo..............OO... oo   ............",
"............oooo....OOO..ooo.............OO...oo  ++............",
".........ooooo.....OOOO...ooo............OO..++o. ++............",
".......oooooo.....OOOO....ooo...........XOO++++++.++++..........",
".......oooo.......OOO......oo...........XO+++++++o++++..........",
"......ooo........OOO.......oo  ..........O++++++++o.............",
".....ooo.........OOO.......oo   .........oo+.+.+.+oo............",
"....oooo........OOO........oo    .......ooo..++..ooo............",
"...oooo........OOO.......  oo  .......oooo...+....oo............",
"..oooo........OOO........  oo ......ooooo.........oo............",
"ooooo........OOOO.......   oo  ...ooooo...........ooo..........o",
"ooo.........OOOO........   oo  .oooooo............ooo........ooo",
"o..........OOOO.........   oo oooo.................oo.......oooo",
"..........++OO.........    oo oooo.................oo......ooo..",
"........++++O..........    ooooo...................oo.....ooo...",
".......++++OOOOOOO.....    ooo.....................oo.....oo....",
"......++++OOOOOOOOOO...    ooo.....................oo....ooo....",
".....++++........OOOOO.+  ++o......................o++..ooo.....",
"...OO++O...........OOO+.+ ++o......................o+..ooo......",
"..OOOO..............OO+++  oo......................o++ooo.......",
"OOOO.................++++.ooo..............    ....o++oo++......",
"OOO..................++++++++..............     ..+++++o+.......",
"OO.....................+++++...............      .+++++++.....OO",
"...................+...+++++................     .++o+++++..OOOO",
"...................++...o++++...............     ++o.++++++.OOO.",
".......................ooO+++...............     ++o...o+++.OO..",
"......................++o..+++...............   ooo.....o++o....",
".....................+++o...++OO................oo   ....oooo...",
"....................+++o.....OOOO..............ooo    ...OOOoo..",
"...................o+++.......OOOO.............ooo    ..OOOOoooo",
"o.................oooo.........OOOO...........ooo.  ....OOO.oooo",
"oo...............oooo...........OOO...........ooo.  ...OOO....oo",
"ooo.............ooo..............OOO..........oo......OOO......o",
"oooo..........o++o................OO.........ooo......OOO.......",
".ooo........ooo++o................OOO........oo......OOO........",
"..oooo.....ooooo........   .......OOO.......ooo......OOO........",
"..ooooooo.ooooo......      ........OO......oooo......OO.........",
"....ooooooooo.......       ........ooO.....ooo.......OO........."
};
