/* XPM */
static char *result[] = {
/* columns rows colors chars-per-pixel */
"64 64 71 1 ",
"  c #B94F00",
". c #C35300",
"X c #C85500",
"o c #C95500",
"O c #CC5600",
"+ c #CE5700",
"@ c #CD5800",
"# c #D55A00",
"$ c #D45B00",
"% c #D95C00",
"& c #DC5C00",
"* c #DC5E00",
"= c #DF5E00",
"- c #E15F00",
"; c #CA630F",
": c #CE6610",
"> c #E56100",
", c #EA6300",
"< c #EF6500",
"1 c #F46700",
"2 c #FF6B00",
"3 c #E16A14",
"4 c #EA6F16",
"5 c #F47418",
"6 c #FF7A1A",
"7 c #578262",
"8 c #578869",
"9 c #B39C7A",
"0 c #CF9869",
"q c #C09C79",
"w c #CF9C78",
"e c #00AFB8",
"r c #00B5BF",
"t c #23AAA3",
"y c #57A082",
"u c #00BBC5",
"i c #0ED7DD",
"p c #00E8F5",
"a c #BC9C86",
"s c #9EA887",
"d c #A7AA87",
"f c #AAA987",
"g c #B5AA87",
"h c #B6A496",
"j c #BAA596",
"k c #9CB7A9",
"l c #BFB1A6",
"z c #C0AA87",
"x c #C5A995",
"c c #C7B3A5",
"v c #CBB5A5",
"b c #CDB7A7",
"n c #BFC6BC",
"m c #CDC0B7",
"M c #D2C2B7",
"N c #DAC8B2",
"B c #D4C4B9",
"V c #86F8FE",
"C c #98FAFF",
"Z c #AEE1E5",
"A c #B0E8E5",
"S c #B3FBFF",
"D c #D4CFCB",
"F c #D9D1CB",
"G c #DCD3CD",
"H c #E2D8C6",
"J c #C6E1E3",
"K c #C5FBFE",
"L c #E1E1E1",
"P c #E4E4E4",
"I c #E0FDFF",
/* pixels */
"pppppppCCCCCCpppppppeeeeeeeppppppppCCCpppppppppppppppppppppppppp",
"ppppppppCCCCppppppppeeeeeppppppppppCCCppppCCCpppppppSSSppppppppp",
"ppppppCCCCCCpppppppeeeeeppppppppppppCCppCCCCpppppppSSSSppppppppp",
"ppppCCCCCCppppppppeeeeppppppppppppppCCCCCCCpppppppSSSSpppppppppp",
"ppCCIISpppppppppeeeeepppppyyyyyyyyyyCCCCCppppppIIIIISppppppppppp",
"pCCCIISpppppppppeeeeepyyyyyOOOOOOOOOOddypppppppIIIIIpppppppppppp",
"CCCCIISpppppppppppppyyyyOOO&2222222=OOOOyypppppIISSSppppppppppCC",
"CCCpIIIpppppppppppyyyOO&222222222222222=OOOypppSSSSppppppppppCCC",
"CCppIIIpppppppppyyyOO22222222222222222222==OOySSSSpppppppppIICCC",
"pppppSSppppppppyyyO222222222222222222222222==OgSSpppppppppIIICpp",
"pppppSSppppppp7yO&222222222266666666622222222=OOpppppppppIIIIppp",
"pppppSSppppppy7O222222222666666666666666222222==OpppppppIIIIpppp",
"pppppSSppppp77O22222222665666122122266666622222==OpppppCIIIppppp",
"pppppSSSppe77O2222222665662212122221222666662222==OpppCCCppppppp",
"pppppSSSSe77O222222266662221122122121,22266662222==OpCCCCppppppp",
"ppppppSSSg7LLLLLL2266611,12222-,1,1222222226662222==OCCCpppppppp",
"ppppppppwwwLLLLLLL66621111-1><<><<<,1-,222226662LLLwwwLLpppppppp",
"pppppppJq7&2222FLLL62112,<><<<<<><<<>*12,21216PPLLLLLLpJJppppppp",
"ppppppZ87O222-225PPLL11<><<<>#+#+Xo<>><>212,1LPLLL22==OppZpppppp",
"pppppZu8O221122664FFL,*<<<###HHHHHHn#o<><21,MLLL66222==&ppZppppp",
"ppppZZ87O222222661%FLL><1#HHHpppppIHHN#<<<1FLLL266222==OppZZpppp",
"ppppZpyO2221,,34522,aLL+#NSSppppppppppHt.<mFLL22666222==&ppZpppp",
"ppppZyyO22112,65121><LLLHSSppppppppppppH2oDL1211266222==OppZpppp",
"ppppZyy&2221156412>@<jFHpSSpppppppppppppHLhL>1221666222=OppZpppp",
"ppppZyO22211265222$<2XFIIISppppppppppppppL#<<1221266222==&pZpppp",
"ppppZyO2112225612>**#HIIIIpppppppppppppppSH.><111266222==&pZpppp",
"pppZ9yO2212256612>>+HIIIICCppppppppppppppSSHo<111166622==OpZZppp",
"pppZyO22222165221*<+NASppCCCpppppppppppppSSHo>,2,1266222==&pZppp",
"pppZyO2212125622$<<kHSSpppCCCppppppppppppSSHo$<212266222==&pZppp",
"ppZZyO22212155,1*>+HSSppppCCCppppppppppppSSINo>212156222==&pZZpp",
"ppZpyO2222116411><+HSppppppCCppppppppppppSIIHo<212266222==&ppZpp",
"ppZpyO2222216621><+NpppppppCCeeppppppppppSIIHo>12,,56222==&ppZpp",
"ppZpyO2222,1561,@*XNpppppppCCeeepppppppppCCIHo<-,1256222==&ppZpp",
"ppZpsO2212,26522*<+NpppppppCCeeeepppppppCCCpH.LL12264222==&ppZpp",
"ppZVsO22222,5622>DLLpppppeeCCeepppppppCCCCppLhDLL1166222==&ppZpp",
"ppZVsO2222225562cLL#HppppeeCCeppppppCCCCCppHo>DvLL566222==&ppZpp",
"VVJZdO=22,2,,66LLL*+HpppeeeCCeepppCCCCCppppH.>2-FLL6222===&pZJpV",
"CVVJpyO2222125GLL>>+NpipeeeCCeepCCCCCCppppiH <,1FFL6222==&ppJVVC",
"CppJpyO222,,-4PLL@>*#HppeeeCCeCCCCppppppppHo>>-1,GLL222==&ppJVCC",
"pppJpyO222122FLL22*<2#HeeeeCCeCCCCpppppppH+<<12116PL222==&pVJVpp",
"pppJJyyO2122LLL562<*>#1HeeeCCCCCppppppppN2o>>,1166PLL2==OpVJJppp",
"ppppJpyO2222LL26511>>*+2HeeCCCpppppppppH2.<*-,,,562LLL==&pVJpppp",
"ppppJJzO=22LL2,66522$<*##HeCCCppppppppH#.><212266622LL==&VJJpppp",
"pppppJJzO22LL221666,2*<>2+LHHppppppHHLL<<*1122666222LLL&VJJppppp",
"pppSSIJfO:1L2111266622*<<<lL#HHHHHH#+hLL>1-116662222w=L&VJpppppp",
"ppSSSSLJyOLL,1,12164622<*mDL>#####o<<DDL111155622222wwLVJLpppppp",
"SSSSpppJqyOL222,122456112cL>><*<<<<<<>LLL1254621222==OVJJIpppppp",
"SSSppppJJyO:112122226555LLL,<<<<><>,21LvL566512222==:&KJJppppppp",
"SSppppppJJyO:2122,112646bL,-1121,1,2,22BLL6522222==:&KJJKpppppSS",
"pppppppppJJyO;2121111115LL646,1,112,555GLL-22222==:&VJJKIIppSSSS",
"ppppppppppJJyO=2222-2--LL636546556566666LL21222===&VJJKIIIIpSSSp",
"pppppppppppJpyO=12112,1xL121564465435222FL2222%==&KVJppCIIIpSSpp",
"pppppppppppJppyO=2122-1LL,2211121212,221FL222===&CVpJpppCIICpppp",
"pppppppppppJJJpyOO=1222LL222111222212222LL2===O&CVJJJppppCCCCppp",
"pppppppppppppJJJwyO==22FL22222122212122LLL===OpLJJJreepppSSSCCpp",
"ppppppppppppppppJJyOO=%2L21222122222222wLL=O&pJJVVreeeppSSSSCCCC",
"CppppppppppppppppJJVdOOOwL=22222222===wwLO&ppJJVVpeeppppSSSpCCCC",
"CCpppppppppppppppVJVVpyy000==========000pppppJVVVpeepppSSSppppCC",
"CCCpppppppppppppCCVJJpppppwwww0000wwLLpppppJJpCCppppppSSSppppppC",
"CCCCppppppppppCIICppJJJLLLLpppppppSSpLLLLJJJpCCCppppppSSSppppppp",
"pCCCppppppppCCCIICppppppppppppppppSSSppppppppCCppppppSSSpppppppp",
"ppCCCCpppppCCCCCppppppppeeepppppppSSSpppppppCCCppppppSSSpppppppp",
"ppCCCCCCCpCCCCCppppppeeeeeeppppppppSSppppppCCCCppppppSSppppppppp",
"ppppCCCCCCCCCpppppppeeeeeeeppppppppCCSpppppCCCpppppppSSppppppppp"
};
