/* XPM */
static char *result[] = {
/* columns rows colors chars-per-pixel */
"64 64 185 2 ",
"   c #026B71",
".  c #0F7374",
"X  c #157576",
"o  c #1B7778",
"O  c #1D7D7E",
"+  c #14797E",
"@  c #CE7A3B",
"#  c #3B8879",
"$  c #3B8779",
"%  c #448975",
"&  c #488B77",
"*  c #448C7A",
"=  c #4A8D7A",
"-  c #4E8771",
";  c #518E7C",
":  c #4B907E",
">  c #45917E",
",  c #56917D",
"<  c #3D9382",
"1  c #399788",
"2  c #00AFB8",
"3  c #12B6BE",
"4  c #449383",
"5  c #4C9382",
"6  c #4E9887",
"7  c #46998A",
"8  c #4E9989",
"9  c #41978A",
"0  c #509787",
"q  c #549888",
"w  c #5B9E92",
"e  c #519D96",
"r  c #639A8B",
"t  c #699D8D",
"y  c #629789",
"u  c #739E8E",
"i  c #799D8B",
"p  c #649D91",
"a  c #6C9E90",
"s  c #4DA49C",
"d  c #5EA096",
"f  c #5DA19B",
"g  c #6DA18F",
"h  c #74A283",
"j  c #7BA684",
"k  c #7CA885",
"l  c #73A38D",
"z  c #7BA68C",
"x  c #75AC8D",
"c  c #7CAA8A",
"v  c #7EB08F",
"b  c #65A094",
"n  c #6DA293",
"m  c #6FA892",
"M  c #65A59A",
"N  c #6EA599",
"B  c #65A89D",
"V  c #6FA89B",
"C  c #71A594",
"Z  c #7AA090",
"A  c #73A993",
"S  c #7DAF91",
"D  c #71A59B",
"F  c #71AA9B",
"G  c #7EB193",
"H  c #7CB69B",
"J  c #7EB99F",
"K  c #5AAEA9",
"L  c #60A4A0",
"P  c #63ABA3",
"I  c #6CABA1",
"U  c #7DBBA4",
"Y  c #77BDAE",
"T  c #50C8B7",
"R  c #77C5BB",
"E  c #79C5B9",
"W  c #7CC6B8",
"Q  c #0EB9C2",
"!  c #13B9C1",
"~  c #1CBAC2",
"^  c #1AC8D1",
"/  c #0CDCE5",
"(  c #06DFE9",
")  c #0DDFE9",
"_  c #11DEE7",
"`  c #17DFE8",
"'  c #0CE2ED",
"]  c #12E2ED",
"[  c #1BE2EC",
"{  c #02E5F1",
"}  c #0AE5F2",
"|  c #00E8F5",
" . c #0CE9F6",
".. c #15E6F2",
"X. c #14EAF6",
"o. c #18EBF7",
"O. c #27EBF6",
"+. c #29ECF7",
"@. c #30ECF7",
"#. c #7DCCC2",
"$. c #7ECFC8",
"%. c #7DD3CD",
"&. c #7ED0C5",
"*. c #61D4D4",
"=. c #73DEDE",
"-. c #7BD8D6",
";. c #52E4E7",
":. c #59EDF3",
">. c #5BF2FA",
",. c #53F3FB",
"<. c #6DEAEE",
"1. c #60E5EA",
"2. c #75EAED",
"3. c #7EEAED",
"4. c #76E7EB",
"5. c #73EEF2",
"6. c #79ECF0",
"7. c #61F3FB",
"8. c #6AF3FB",
"9. c #7FF0F5",
"0. c #74F3FB",
"q. c #7AF3FA",
"w. c #76F0F6",
"e. c #80A787",
"r. c #83AF8F",
"t. c #84B28D",
"y. c #84B493",
"u. c #88B492",
"i. c #82B79B",
"p. c #85BA9C",
"a. c #89BD9E",
"s. c #90BA9E",
"d. c #84BDA3",
"f. c #8EBCA4",
"g. c #81BFB0",
"h. c #89C09F",
"j. c #85C0A7",
"k. c #84C3AD",
"l. c #80C3B0",
"z. c #83CBBD",
"x. c #8FCCBC",
"c. c #82CEC3",
"v. c #80CDC8",
"b. c #82D1C7",
"n. c #83D3CB",
"m. c #89D4CB",
"M. c #83D6D0",
"N. c #85DCD5",
"B. c #89DDD5",
"V. c #87DEDB",
"C. c #88DED8",
"Z. c #92DED7",
"A. c #86E2DE",
"S. c #88E2DE",
"D. c #84E3E2",
"F. c #8AE4E3",
"G. c #82E6E9",
"H. c #84EBED",
"J. c #8AECED",
"K. c #99F1EF",
"L. c #83EDF0",
"P. c #93EFF6",
"I. c #84F2F7",
"U. c #8BF2F7",
"Y. c #86F5FB",
"T. c #8AF5FA",
"R. c #8EF8FE",
"E. c #95F6FA",
"W. c #97F8FD",
"Q. c #98FAFF",
"!. c #99F3F8",
"~. c #A4F9FE",
"^. c #AAFAFE",
"/. c #B3FBFF",
"(. c #BFF6F9",
"). c #D3ECEC",
"_. c #C6FAFD",
"`. c #CCFBFE",
"'. c #D6FCFE",
"]. c #D9FCFE",
"[. c #DBF6F6",
"{. c #E1ECE9",
"}. c #F8F4EB",
"|. c #E0FDFF",
" X c #F0FEFB",
/* pixels */
"| | | | | | | Q.Q.Q.Q.Q.Q.| | | | | | | 2 2 2 2 2 2 2 | | | | | | | | Q.Q.Q.| | | | | | | | | | | | | | | | | | | | | | | | | | ",
"| | | | | | | | Q.Q.Q.Q.| | | | | | | | 2 2 2 2 2 | | | | | | | | | | Q.Q.Q.| | | | Q.Q.Q.| | | | | | | /././.| | | | | | | | | ",
"| | | | | | Q.Q.Q.Q.Q.Q.| | | | | | | 2 2 2 2 2 | | | | | | | | | | | | Q.Q.| | Q.Q.Q.Q.| | | | | | | /./././.| | | | | | | | | ",
"| | | | Q.Q.Q.Q.Q.Q.| | | | | | | | 2 2 2 2 | | | | | | | | | | | | | | Q.Q.Q.Q.Q.Q.Q.| | | | | | | /./././.| | | | | | | | | | ",
"| | Q.Q.|.|./.| | | | | | | | | 2 2 2 2 2 | | | | | | | | | | | | | | | Q.Q.Q.Q.Q.| | | | | | |.|.|.|.|./.| | | | | | | | | | | ",
"| Q.Q.Q.|.|./.| | | | | | | | | 2 2 2 2 2 | | | | | | | | | | | | | Q.Q.Q.Q.Q.| | | | | | | | |.|.|.|.|.| | | | | | | | | | | | ",
"Q.Q.Q.Q.|.|./.| | | | | | | | | | | | | | | | | | | | | | | | | Q.Q.Q.Q.Q.| | | | | | | | | | |.|./././.| | | | | | | | | | Q.Q.",
"Q.Q.Q.| ].|.|.| | | | | | | | | | | | | | | | | | | | | | | Q.Q.Q.Q.Q.| | | | | | | | | | | | /./././.| | | | | | | | | | Q.Q.Q.",
"Q.Q.| | |.|.|.| | | | | | | | | | | | | | | | | | | | | Q.Q.Q.Q.Q.| | | | | | | | | | | | | /./././.| | | | | | | | | |.|.Q.Q.Q.",
"| | | | | /./.| | | | | | | | | | | | | | | | | | | | Q.Q.Q.Q.| | | | | | | | | | | | | | | /././.| | | | | | | | | ].|.|.Q.| | ",
"| | | | | /./.| | | | | | | 2 | | | | | | | | | | | Q.Q.Q.| | | | | ].| | | | | | | | | | /././.| | | | | | | | | |.|.|.|.| | | ",
"| | | | | /./.| | | | | | | 2 2 | | | | | | | | | Q.Q.Q.| | | | ].| ].| ].| | | ' ' ' ' Q.7.~.| | | | | | | | | |.|.|.|.| | | | ",
"| | | | | /./.| | | | | 2 2 2 2 2 | | | | | | | Q.Q.Q.| | | | | | | ].].| | ].5.P B M B Q.b T.| | | Q.| | | | Q.|.|.|.| | | | | ",
"| | | | | /././.| | 2 2 2 2 2 | | | | | | | | | Q.Q.| | | | | ].| | ].].| } X.].F b n n n C Y.Q.Q.| | | | | Q.Q.Q.| | | | | | | ",
"| | | | | /./././.2 2 2 2 2 | | | | | | | | | Q.Q.Q.| | | | | | | ].].o.o.,.].L.F n a n C n t T.T.| | | | Q.Q.Q.Q.| | | | | | | ",
"| | | | | | /./././.2 2 | | | | | | | | | | Q.Q.Q.| | | | | | ].| o.Q.].0.0.w.H.N n n d.d.n n D P | Q.Q.Q.Q.Q.Q.| | | | | | | | ",
"| | | | | | | | /./././.| | | | | | |.| | Q.Q.Q.| | | | | | ].].Q.'.].].q.q.2.V n n C d.d.p.C b B _ | ,.>.Q.| | | | | | | | | | ",
"| | | | | | | 2 2 2 /././.| | | | |.|.| | Q.Q.Q.| | | ].X.o.Q.^.8.].].q.I.H.V n n n C d.d.d.C n m M 3.Y.,.>.| | | | | | | | | | ",
"| | | | | | 2 2 2 2 /./././.| | |.|.| | Q.Q.Q.| | | | ~.^.^./.].].T.].].H.V n n ].d.d.].d.d.k k n b r p Q.| | | | | | | | | | | ",
"| | | | | 2 2 2 2 | | /./././.|.|.|.| Q.Q.Q. X|.|.`.'. X'.].8.T.E.].I.L.B n n n p.d.d.d.d.d.k @ j y r r Q.| | | | | | | | | | | ",
"| | | | | 2 2 2 | | | | | /./.].|.|.|.|.].Q. X|.{.{.].}.U.o.].L.J.H.H.F N n N n d.p.p.d.d.p.z h h y r w | | Q.| | | | | | | | | ",
"| | | | | | | | | | | | | |./.|.|.|.|.|.Y.Y.u N V N V I L...].I ].V N n n #.#.#.y.t.u.k k j t y y y y r W.| Q.| | | | | | | | | ",
"| | | | | | | | | | | |.|.|.|.|.|.|.|.>.Y.C n n n n b N I [ ].N n n n n C #.b.&.y.t.t.k j j y y y y y p | | Q.| | | | | | | | | ",
"| | | | | | | | | | |.|.| | |.|.|.|.E.K.!.D n V C u l n N D.N n g C C V I v.&.c.i.y.G c j h r p p b u f | | | | | | | | | | | | ",
"| | | | | | | | | |.|.| | | | |.|.|.E.i N N &.b.b.e.k j n N n g r.y.S.S.B.n.M.n.&.c.W b t y w d G.J.{.).Q.| | | | | | | | | | | ",
"| | | | | | | | |.| | | | | |.|.Q.| E.F g N %.M.b.c j j C g n t.t.t.S.S.S.M.M.M.b.c.E r y p d ^ :.!.3 Q | | Q.| | | | | | | | | ",
"| | | | | | | | |.| | | | Q.Q.Q.Q.| Y.F g N %.M.n.c j k l g g t.t.t.B.S.S.n.n.n.c.E b d e Q.].:.L.~ 3 Q | | | | | | | | | | | | ",
"| | | | | | | | | | | | Q.Q.Q.Q.| | 6.F b m A.A.B.u.r.t.t.t.t.t.t.y.u.u.y.b.n.#.0 4 4 s ' ] 7.E.! ! (.|.| | | | | | | | | | | | ",
"| | | | | | | | | Q.Q.Q.Q.Q.| | | | 4.D n N A.S.B.y.y.y.t.t.y.t.T t.t.t.t.z.&.W = % 4 _ X.w.'.W...~ |.|.| | | | | | | | | | | | ",
"| | | | | | | Q.Q.Q.Q.Q.Q.| | | | ] I D n N M.Z.B.k.d.d.d.d.d.d.d.d.u.t.y.W W E = % 7 <.0.'.Q.'._.O.|.|.|.|.| | | | | | | | | | ",
"| | | | | | | Q.Q.Q.Q.| | | | | | P N a n C m.M.M.A.S.S.;.S.D.n.n.b.u.t.t.C g g = % 4 Q.q.Q.|.Q.'.Q.|.|.|.|.| | | | | | | | | | ",
"| | | | | | Q.Q.Q.| | | | | | | ) M a n n n c.n.n.V.S.S.F.S.S.n.n.n.y.u.G b g r & % 4 5.w.Q.'.'.].|.W.| | | | | | | | | | | | | ",
"| | | | | Q.Q.Q.| | | | | | | | K B B G G G H i.J H H H W j.W k.l.k.k.d.k.b g t & % 5 <.Q.`.+.Q.+.|.Q.Q.| | | | | | | | | | | | ",
"| | | | Q.Q.Q.Q.| | | | | | | { M n n G p.y.G v G t.v v p.W J U j.U U d.U n p y 0 6 < 2.+.Q._. .| Q.Q.Q.| | | | | | | | | | | | ",
"| | | Q.Q.Q.Q.| | | | | | | { :.I n g G v t.y.p.h.u.h.a.p.d.j.j.k.d.U f.H a p & * Q.4 [ Q._.X. .| | Q.Q.| | | | | | | | | | | | ",
"| | Q.Q.Q.Q.| | | | | | | | 7.1.N n n l g z v u.G p.a.p.j.d.j.U U d.z C m ; = % '.Q.*.]  .Q.| | | | Q.Q.| | | | | | | | | | | | ",
"Q.Q.Q.Q.Q.| | | | W.| | | 7.n D N a a n n g t.t.t.d.j.d.j.d.j.j.d.d.i a t % % Q.< ].} ].| | | | | | Q.Q.Q.| | | | | | | | | | Q.",
"Q.Q.Q.| | | | | | | W.| 7.7.n D D N V F F A y.y.t.d.d.p.d.d.p.j.d.s.Z N a * % * / { | | | | | | | | Q.Q.Q.| | | | | | | | Q.Q.Q.",
"Q.| | | | | | | | | Q.Q.7.L b n M.V.B.V.N.N.m.m.m.y.t.u.t.y.y.z.x.c.c.m.z.Q.% Q.( | | Q.Q.| | | | | | Q.Q.| | | | | | | Q.Q.Q.Q.",
"| | | | | | | | | | Y.q.7.M n N B.A.S.S.A.A.N.M.n.u.t.t.t.t.y.c.v.c.b.b.R = % < ( ].Q.| | | | | | | | Q.Q.| | | | | | Q.Q.Q.| | ",
"| | | | | | | | |.Q.T.q.7.M n n %.-.-.N.B.B.M.n.n.u.t.t.r.t.y.#.c.#.W #.W 4 : < ' Q.Q.].| | | | | | | Q.Q.| | | | | Q.Q.Q.| | | ",
"| | | | | | | |.|.|.Q.Q.7.M n b O + O H i.p.n.M.v.u.t.t.l C N N D N 5 : * > =.4.Q.| Q.| | | | | | | | Q.Q.| | | | | Q.Q.| | | | ",
"| | | | | | |.|.|.|.8.7.Q.M a r .   X l t.y.-.n.n.u.t.r.C a n n b t % Q.% 4 ] Q. .| | | | | | | | | | Q.Q.| | | | Q.Q.Q.| | | | ",
"| | | | | |.|.|.|.Q.| | | M n r X . o c u.y.%.M.n.p.y.r.C a a t t & * : 5 H.Q.| | | | | | | | | | | | Q.|.|.| | Q.Q.Q.| | | | | ",
"| | | /./.|.|./.Q.Q.Q.Q.Q.b b g x x x t.t.p.%.M.n.b.b.c.A b g : & & 5 G.Q.[. .Q.| | | | | | | | | | | Q.|.| | Q.Q.Q.| | | | | | ",
"| | /./././.| | | | | | | M g C S t.t.t.t.y.%.n.M.M.M.n.C g r % % : F.U.|.o. .| | | | | | | | | | | | Q.|.|.Q.Q.Q.| | | | | | | ",
"/./././.| | | | | | Q.Q.Q.M n t c t.t.r.t.y.%.b.$.#.#.R m r % = - , J.O. . .| | | | | 2 2 2 2 | | | | Q.|.].Q.Q.|.|.| | | | | | ",
"/././.| | | | | | | | Q.| $ % ; h j k j j c C N N q 5 : = * * > D.L.I. .| | | | | | | 2 2 2 2 2 | | |.|.|.|.|.Q.|.| | | | | | | ",
"/./.| | | | | | | | Q.| | $ % % , t.t.t.e.k m g q & % % % % > / }  . . .| | | | | | | 2 2 2 2 2 2 | |.|.|.|.|.|.|.| | | | | /./.",
"| | | | | | | | | | | Q.| $ % % e., j , e., r h = : Q.8 5 : : Q.| | | | | | | | | | | | 2 2 2 2 2 | |.|.Q.|.|.|.|.|.| | /./././.",
"| | | | | | | | | | | | Q.P.Q.% % & = & , - = = : 6 =.H.3.H.Q.Q.Q.Q.Q.| | | | | | | | | 2 2 2 2 2 |.|.Q.| |.|.|.|.|.|.| /././.| ",
"| | | | | | | | | | Q.Q.Q.Q.| # * % % % - - - % Q.=.w.Q.I.Q.X.Q.Q.| | | | | | | | | | | 2 2 2 2 2 |.|.Q.| | | Q.|.|.|.| /./.| | ",
"| | | | | | | | | | | | Q.Q.| ' 1 < < < 4 4 5 4 7 5.X.q.q.`.o.Q.| | | | | | | | | | | | | 2 2 2 Q.Q.Q.| | | | | Q.|.|.Q.| | | | ",
"| | | | | | | | | | Q.| | Q.| { Q.' { / ] Q.Q.Q.Q.}  . .Q.`.^.Q.| | | | | | | | | | | | | | | | Q.Q.2 2 2 | | | | Q.Q.Q.Q.| | | ",
"| | | | | | | | | | | | Q.| Q.| | | |  .q.Q.Q.Q.Q.| |  .X././././.| | | | | | | | | | | | | | Q.Q.Q.2 2 2 2 | | | /././.Q.Q.| | ",
"| | | | | | | | | | | Q.Q.| Q.Q.Q.Q.Q.R.Q.Q.Q.X.| | | | | | /./././.| | | | | | | | | | | | | Q.Q.Q.2 2 2 2 | | /./././.Q.Q.Q.Q.",
"Q.| | | | | | | | | | | | | Q.| Q.Q.Q.Q.Q.Q.X.Q.| | | | | | | /./././.| | | | | | | | | | | Q.Q.Q.| 2 2 | | | | /././.| Q.Q.Q.Q.",
"Q.Q.| | | | | | | | | | | Q.| | | Q.Q.Q.Q.| Q.| Q.| | | | | | | /././.| | | | | | | | | | | Q.Q.Q.| 2 2 | | | /././.| | | | Q.Q.",
"Q.Q.Q.| | | | | | | | | | | | | Q.Q.Q.| | Q.Q.| | | | | | | | | | /././.| | | | | | | | | | Q.Q.| | | | | | /././.| | | | | | Q.",
"Q.Q.Q.Q.| | | | | | | | | | Q.|.|.Q.| | | | | | | | | | | | | | | | /./.| | | | | | | | | Q.Q.Q.| | | | | | /././.| | | | | | | ",
"| Q.Q.Q.| | | | | | | | Q.Q.Q.|.|.Q.| | | | | | | | | | | | | | | | /././.| | | | | | | | Q.Q.| | | | | | /././.| | | | | | | | ",
"| | Q.Q.Q.Q.| | | | | Q.Q.Q.Q.Q.| | | | | | | | 2 2 2 | | | | | | | /././.| | | | | | | Q.Q.Q.| | | | | | /././.| | | | | | | | ",
"| | Q.Q.Q.Q.Q.Q.Q.| Q.Q.Q.Q.Q.| | | | | | 2 2 2 2 2 2 | | | | | | | | /./.| | | | | | Q.Q.Q.Q.| | | | | | /./.| | | | | | | | | ",
"| | | | Q.Q.Q.Q.Q.Q.Q.Q.Q.| | | | | | | 2 2 2 2 2 2 2 | | | | | | | | Q.Q./.| | | | | Q.Q.Q.| | | | | | | /./.| | | | | | | | | "
};
