/* XPM */
static char *result[] = {
/* columns rows colors chars-per-pixel */
"64 64 37 1 ",
"  c black",
". c #007D49",
"X c #006D73",
"o c #4B4A4A",
"O c #399B4E",
"+ c #1E9B79",
"@ c #00BE70",
"# c #49BE62",
"$ c #4CCD67",
"% c #4FD76C",
"& c #0FAB87",
"* c #1BAA83",
"= c #00AF99",
"- c #00A6B0",
"; c #00AFB8",
": c #00B4BE",
"> c #1BC395",
", c #00D1AE",
"< c #29D9A9",
"1 c #00C9C4",
"2 c #00DBCF",
"3 c #00C9D4",
"4 c #16E0CC",
"5 c #00D7E3",
"6 c #00E8F5",
"7 c #51F2FB",
"8 c #5FF3FB",
"9 c #77F4FB",
"0 c #87F5FB",
"q c #98FAFF",
"w c #BAF4F7",
"e c #BAF7F9",
"r c #B3FBFF",
"t c #BAF9FA",
"y c #BCFAFA",
"u c #E0FDFF",
"i c white",
/* pixels */
"6666666qqqqqq6666666;;;;;;;66666666qqq66666666666666666666666666",
"66666666qqqq66666666;;;;;6666666666qqq6666qqq6666666rr6666666666",
"666666qqqqqq666666666;666666OOOOOOOOqq66qqqq6666666rrr6666666666",
"6666qqqqqq666666666;6;666XXOO#oooo$OOqqqqqq6666666rrr66666666666",
"66qquur666666666666;6666XXOO##$%%%%%OOqqq666666uuuuu666666666666",
"6qqquur6666666;666;6666XXXO#$$$$$$$%%Oq66666666uuuuu6r6666666666",
"qqqquur6666666;66666666XXOO#$ $$$$ $%%O66666666uurrrrr66666666qq",
"qqq6uuu6666666666666;;6XXO##$ $$$$ $$%O666666666rrr6666666666qqq",
"qq66uu66666666666666666XXO##$$$$$$$$$%O6666666rrrr666666666uuqqq",
"66666666666666666666666XXO##$$$$$$$$$%O6666666rr666666666uuuuq66",
"66666666666666;66666666XXO##$$$$$$$$$%O6666666rrr66666u66uuuu666",
"6666r66666i6+++;66666666XX###$$$$$$$$O6666rr6rr66+++666u6uuu6666",
"6666ri6ri6+++<++++666666XXO######<<<<O666rrrrr++++<+++66u6uu6666",
"6666rrrii++<<<<<<++6666qqXXO<<<<<<<<+66r6r88r++<<<<<<+++u6uu6666",
"6666rrii+<<<<<<<<<++6i6qqXXO++++++++++uuu088++<<<<<<<<<w+6666666",
"66666iiw<<<<<<<<<<<++6qq+OO+========+++uu66+-<<<<<<<<<<<++666666",
"6666ii+y<<<<<<<<>><<++q++====,,,,,,==..++6--<<<<>>><<<<<<+6i6666",
"6666i+<yy<<<<>>>>>>44++====,,,,,,,,22====++>>>>>>>>><<<<<<+66666",
"666ii+<y<<<>>>>>***4+===,,=,,,,,,,22,=,,===++******>>><<<<++6666",
"6666+<<<<<>>>y***+++==,,,,==,,,,,@,,==,,,,==+++******>>><<<+i666",
"666++<<<>>>>*y+++9+==,,,,,,=,@@@@@@,=,,,,,,==+6+++*****>><<++666",
"666+<<<>>>*y:++u9+==,,,,,,,==.......=,,,,,,,==+53+++****>*<$+666",
"666+>>>>**+:uuu9+==,,,,,,@,=,@@@@@@@.,,,,,,,,==+3;qq++*****$+666",
"66++****++uiiiu9+=,,,,,,@@==@@@@@@@@.=,,,,,,,,=+3qqq66++****++66",
"66+***+++uiiii6+=====,,,@@.@@@@@@@@@@.,,,,t=====+7q6666+++**$+66",
"666++++6iiuiiu+==,,,,==.@@.@@@@@@@@@@.,,==et,,,==+;;66666++++666",
"66666666uuiiq6+=,,,,,@@....@@@@@@@@@@.=1=,,t,,,,=+;;666666666666",
"666666666u6667+=,,,,,@@@@.@@@@@@@@@@@@=,,,,,t,,,=+uu666666666666",
"66666666quu67+==,,,,@@@@@.............=,@,,,tt,,==+u6u6666666666",
"666666666q667+=,,,,,@@@@@.@@@@@@@@@@@@=,,,,,,t,,,=+u6u6666666666",
"6666666666666+=t,,,,@@@@@.@@@@@@@@@@@@=,,,,,,t,,,=+9u66666666666",
"666666q66666+==,,,2,@@@@..@@@@@@@@@@@@.=,,,,,,,,,==+u66666666666",
"66666qqqq666+=,,,,22,@@@.@@@@@@&@@@@@@@.,,2,,,,,,,=+666666666666",
"6666qqqq6666+=,,,,,,,@...@@@@@@@@@@@@@@.==2,,,,,,,=+666666666666",
"666qqqq66666+=,,,,@...@@..@@@......@@@..@,1==,,,,,=+666666666666",
"66qqqq666666+=====.@@@@@@....@@@@@@....@@,2,,======+666666666666",
"qqqqq6666666+=,,,,@@@@@@@@..@@@@@@@@..@@@@,,,,,,,,=+qq666666666q",
"qqq66666uur6+=,,,,,@@@@@@@@.@@@@@@@@.@@@@@,,,,,,,,=+q66666666qqq",
"q66666uuu66r+==t,,,@@@@@@@@@.@@@@@@.@@@@@@,,,,,,,==+qq6666qqqqqq",
"66666uuu666u8+=,,,,@,,@@@@@..........@@@@@,,,,,,,=+qqq66q666qq66",
"6666666uuu6rr+=,,,,,,,,@@@..@@@@@@@@..@@@@,,t,,,,=+qqq666q666666",
"6666666uuuuu6+==,,,,,,,@@..@@@@@@@@@@..@@@,,tt,,==+qq6666qqq6666",
"666666uuu6666++=,,,,@,,.....@@@@@@@@.....@,,,t,,=+6qq6666q666666",
"66666uuuu66666+=,,,,,..@@@@...@@@@...@@@@.=,,t,,=+6quu66qqqq6666",
"666rruur6666666==,t===@@@@.@@@....@@@.@@@@==e,,==+6qu66q66q66666",
"66rrrr666666666+==ee,,@@@@.@@@@@@@@@@.@@@,,,====+66quuqqq6qq6666",
"rrrr666666666666+==t,,@@@.@@@@@@@@@@@@.@,,,,,==+666quuqqu666u666",
"rrr6666666666666+==,,,@@...@@@@@@@@@@.==,,,,,==+66uuuuuu66u66666",
"rr66666666666666+-1=,,,,=,==@@@@@@@@.=,=,,,,==++;6uuuuuu666ur6rr",
"666666666666666++<+==,,=,,,==========,,,=,,==+<++6uuquuuuu6u66rr",
"66666666666666++><<+==,=,,,,,,,,,,,,,,,,=,==+><<++uq6uuuuuuu66r6",
"666666666666+++>>44$+===,,,,,,,,,,,,,,,,===+**<<<w++666quu6ru666",
"66666666666++**><<<++++====,,,,,,,,,,====++++*<<<<<++666quuu6666",
"6666666666++**>><<<+6u9++====,,,,,,====++666+**<y<<<++666qqqq666",
"6666666666+**>><<<++uuuq6+=+========+=+66666++*<y<<<<+666rrrqq66",
"666666666+**>><<<<+quuu66++=++++++++=++666666+*<y<<<<++6rrrrqqqq",
"q66666666+>>><<<yy+qqu6666++<<<<<<<<++6666666+**y<<<<<+6rrr6qqqq",
"qq66666666**>>>>>>+qqqu6666++<<<<<<++66666666++**<<<<+6rrr6666qq",
"qqq6666666++*>**++q66q666666+++<<+++6666666666++**<<++rrr666666q",
"qqqq6666666++++++q666666666666++++rr666666666qq++++++6rrr6666666",
"6qqq66666666777uuq6666;66666666666rrr66666666qq666666rrr66666666",
"66qqqq66666qqqqq66666;;6;;;6666666rrr6666666qqq666666rrr66666666",
"66qqqqqqq6qqqqq666666;;;;;;66666666r6666666qqqq666666rr666666666",
"6666qqqqqqqqq6666666;;;;;;;66666666qq666666qqq6666666rr666666666"
};
