/* XPM */
static char *result[] = {
/* columns rows colors chars-per-pixel */
"64 64 35 1 ",
"  c black",
". c #3C3C3C",
"X c #007D49",
"o c #414141",
"O c #696A6A",
"+ c #399B4E",
"@ c #00BE70",
"# c #4CCD67",
"$ c #1F989F",
"% c #00AFB8",
"& c #17ACB5",
"* c #38A9AF",
"= c #32ACB3",
"- c #4BB5BB",
"; c #41B9C0",
": c #00CCD8",
"> c #18CBD5",
", c #00E8F5",
"< c #1EEBF6",
"1 c #35EDF7",
"2 c #5CC1C6",
"3 c #69C9CF",
"4 c #75D2D6",
"5 c #4AEFF8",
"6 c #49F1FA",
"7 c #55F2FA",
"8 c #6BF2FA",
"9 c #71F4FB",
"0 c #7CF5FB",
"q c gray53",
"w c #98FAFF",
"e c #9CFAFF",
"r c #A2FAFF",
"t c #B3FBFF",
"y c #E0FDFF",
/* pixels */
",,,,,,,wwwwww,,,,,,,%%%%%%%,,,,,,,,www,,,,,,,,,,,,,,,,,,,,,,,,,,",
",,,,,,,,wwww,,,,,,,,%%%%%,,,,,,,,,,www,,,,www,,,,,,,ttt,,,,,,,,,",
",,,,,,wwwwww,,,,,,,%%%%%,,,,,,,,,,,,ww,,wwww,,,,,,,tttt,,,,,,,,,",
",,,,wwwwww,,,,,,,,%%%%,,,,,,,,,,,,,,wwwwwww,,,,,,,tttt,,,,,,,,,,",
",,wwyyt,,,,,,,,,%%%%%,,,,,,,,,,,,,,,wwwww,,,,,,yyyyyt,,,,,,,,,,,",
",wwwyyt,,,,,,,,,%%%%%,,,,,,,,,,,,,wwwww,,,,,,,,yyyyy,,,,,,,,,,,,",
"wwwwyyt,,,,,,,,,,,,,,,,,,,,,,,,,wwwww,,,,,,,,,,yyttt,,,,,,,,,,ww",
"www,yyy,,,,,,,,,,,,,,,,,,,,,,,wwwww,,,,,,,,,,,,tttt,,,,,,,,,,www",
"ww,,yyy,,,,,,,,,,,,,,,,,,,,,wwwww,,,,,,,,,,,,,tttt,,,,,,,,,yywww",
",,,,,tt,,,,,,,,,,,,,,,,,,,,wwww,,,,,,,,,,,,,,,ttt,,,,,,,,,yyyw,,",
",,,,,tt,,,,,,,%,,,,,,,,,,,www,,,,,,,,,,,,,,,,ttt,,,,,,,,,yyyy,,,",
",,,,,tt,,,,,,,%%,,,,,,,,,www,,,,,,,,,,,,,,,,ttt,,,,,,,,,yyyy,,,,",
",,,,,tt,,,,,%%%%%,,,,,,,www,,,,,,,,,,,,,,,tttt,,,,,,,,,wyyy,,,,,",
",,,,,ttt,,%%%%%,,,,,,,,,ww,,,,,,,,,,,,,tttttt,,,,,,,,,www,,,,,,,",
",,,,,tttt%%%%%,,,,,,,,,www,,,,$$,,,,,tyyyttt,,,,,,,,,wwww,,,,,,,",
",,,,,,tttt%%,,,,,,,,,,www,,,$$$$$$77yyyy8,,,,,,,,,,,wwww,,,,,,,,",
",,,,,,,,tttt,,,,,,y,,www,,,$$$$$$7yyyyy8,,,,,,,,,,,www,,,,,,,,,,",
",,,,,,,%%%ttt,,,,yy,,www,,$$$y=;;yyqqyyyy=,,y,y,,,wwww,,,,,,,,,,",
",,,,,,%%%%tttt,,yy,,www,,$$tyy=;yyqqqOO=y==,yyy,,,www,,,,,,,,,,,",
",,,,,%%%%,,ttttyyy,www,,yyyyyOqOOOOOOOOO=y=,yyy,,,ww,,,,,,,,,,,,",
",,,,,%%%,,,,,ttyyyyyyw,yyOOOO.++++OOOOqqOyy,yyyyy,ww,,,,,,,,,,,,",
",,,,,,,,,,,,,ytyyyyyy,yyOOOO.+ ## +OOOOqO==,,:y%%,ww,,,,,,,,,,,,",
",,,,,,,,,,,yyyyyyyywyyyOOqO..+####+OOOOqqO=,,:yyy%ww,,,,,,,,,,,,",
",,,,,,,,,,yy,,yyyyyyyyOOOOO..+####+OOOOOqq==yyy%%yww,,,,,,,,,,,,",
",,,,,,,,,yy,,,,yyy,yyoOOOOOO..++++OOOOOOOq;=y:%%www,,,,,,,,,,,,,",
",,,,,,,,y,,,,,yyw,,$$o.+++++++XXXX+++++++O;=,y%ywy%%,,,,,,,,,,,,",
",,,,,,,,y,,,,wwww,,$$o.+###+XX@@@@XX+###+O==>,%ww%%%,,,,,,,,,,,,",
",,,,,,,,,,,,wwww,,$$to..+#+XX@@@@@@XX+#++O=>>,6w%%yy,,,,,,,,,,,,",
",,,,,,,,,wwwww,,,,$$toO.++XXXX@@@@XXXX++OOO>>88w,%yy,,,,,,,,,,,,",
",,,,,,,wwwwww,,,,,33toOO.+X@@XXXXXX@@X+OOOO==88yy,yyyy,,,,,,,,,,",
",,,,,,,wwww,,,,,,,33toOO.XX@@@XXXX@@@XX+OOO===88ywyyyy,,,,,,,,,,",
",,,,,,www,,,,,,,,t33toOO.X@@@@X@@X@@@@X+OOO===88yyw,,,,,,,,,,,,,",
",,,,,www,,,,,,,,,t33toOO.XX@@@X@@X@@@XX+OOOq==,8,ywy,,,,,,,,,,,,",
",,,,wwww,,,,,,,,tt3&toOO.XXXXX@@@@XXXXX+OOOq==8,yyyw,,,,,,,,,,,,",
",,,wwww,,,,,,,,ttt$$toOO.X@@XX@@@@XX@@X+OOOqO8,yy,yw,,,,,,,,,,,,",
",,wwww,,,,,,,,ttt,$$tOOO.X@@@XX@@XX@@@X+OOOqOO,yyyyy,,,,,,,,,,,,",
"wwwww,,,,,,,,tttt,$$tOOO.X@@@@XXXX@@@@X+OOOqOO=,,yyyy,,,,,,,,,,w",
"www,,,,,,,,,tttt,,,$tOOO..X@@X@@@@X@@X+OOOOOOO==,,www,,,,,,,,www",
"w,,,,,,,,,,tttt,,,,$ttOO..XXXX@@@@XXXX+OOOOOOO;=,,ywwy,,,,,,wwww",
",,,,,,,,,,yytt,,,,,$$tOOOO.X@@XXXX@@X+OOOOOOOO;=,,,ww,,,,,,www,,",
",,,,,,,,yyyyt,,111,,$ttOOO.+XX@@@@XX+OOOOOOOOy;y,,,wwy,,,,www,,,",
",,,,,,,yyyyttttttt11$$tOOOO.++XXXX+++OOOOOOOOO=y,,,ww,,,,,ww,,,,",
",,,,,,yyyytttttttt99--tOO.+##++++++##+OOOOOOyyy=,,,ww,,,,www,,,,",
",,,,,yyyy,,,,,,,<tt02-ttO.+#++OOO.++#+OOqqOOy==,,,,wyy,,www,,,,,",
",,,ttyyt,,,,,,,,,<5022*tt.+++OOOOO.+++OOOOOOy=yyy,,wy,,www,,,,,,",
",,tttt,,,,,,,,,,,<<<44*$tttOOOOO=ttOOOOOOOOyyy,,,,,wyywww,,,,,,,",
"tttt,,,,,,,,,,,,,,,<2222$$ttooo$=ttOOOOOOtt=yy:,,,,wyywwyy,,,,,,",
"ttt,,,,,,,,,,,,,,,,,<2222-$tot,ttt=ttttt,tt=:::%,,yyyyywy,,,,,,,",
"tt,,,,,,,,,,,,,,,,,,<<*222otttttttto,,,ttt,%::%%%,yyyyyyy,,,,,tt",
",,,,,,,,,,,,,,,,,,,y,<<tttttt,,t,,tttttttt,y%%%%%,yywyyyyy,,tttt",
",,,,,,,,,,,,,,,,,,,yy,<<rttttt,tttt,,t,,,,,,%%%%%yyw,yyyyyy,ttt,",
",,,,,,,,,,,,,,,,,,,,,,,eetttt,,t,t,,,,,y,y,,%%%%%yyw,,,wyyy,tt,,",
",,,,,,,,,,,,,,,,,,,,,,yyw,,ttt,,,,,,,,,,,,,,,%%%www,,,,,wyyw,,,,",
",,,,,,,,,,,,,,,,,,,,,yyyw,,,tttt,,,,,,,,,,,,,,,,ww%%%,,,,wwww,,,",
",,,,,,,,,,,,,,,,,,,,yyyw,,,,,tttt,,,,,,,,,,,,,,www%%%%,,,tttww,,",
",,,,,,,,,,,,,,,,,,,wyyy,,,,,,,tttt,,,,,,,,,,,,,www%%%%,,ttttwwww",
"w,,,,,,,,,,,,,,,,,wwww,,,,,,,,,tttt,,,,,,,,,,,www,%%,,,,ttt,wwww",
"ww,,,,,,,,,,,,,,,wwww,,,,,,,,,,,ttt,,,,,,,,,,,www,%%,,,ttt,,,,ww",
"www,,,,,,,,,,,,,www,,,,,,,,,,,,,,ttt,,,,,,,,,,ww,,,,,,ttt,,,,,,w",
"wwww,,,,,,,,,,wyyw,,,,,,,,,,,,,,,,tt,,,,,,,,,www,,,,,,ttt,,,,,,,",
",www,,,,,,,,wwwyyw,,,,,,,,,,,,,,,,ttt,,,,,,,,ww,,,,,,ttt,,,,,,,,",
",,wwww,,,,,wwwww,,,,,,,,%%%,,,,,,,ttt,,,,,,,www,,,,,,ttt,,,,,,,,",
",,wwwwwww,wwwww,,,,,,%%%%%%,,,,,,,,tt,,,,,,wwww,,,,,,tt,,,,,,,,,",
",,,,wwwwwwwww,,,,,,,%%%%%%%,,,,,,,,wwt,,,,,www,,,,,,,tt,,,,,,,,,"
};
